/home/xinjie/Newton_Connection/Newton/phystwin_bridge/tools/core/newton_import_ir.py:1209: UserWarning: tabletop_table_box: PhysTwin ground collide_elas is present in IR, but native Newton SemiImplicit has no direct 1-to-1 restitution field for particle-vs-shape contacts. Ground bounce will therefore use native Newton ground ke/kd/kf defaults unless --ground-restitution-mode=approximate-native is selected.
  warnings.warn(message)
ffmpeg version 6.1.1-3ubuntu5+esm7 Copyright (c) 2000-2023 the FFmpeg developers
  built with gcc 13 (Ubuntu 13.3.0-6ubuntu2~24.04)
  configuration: --prefix=/usr --extra-version=3ubuntu5+esm7 --toolchain=hardened --libdir=/usr/lib/x86_64-linux-gnu --incdir=/usr/include/x86_64-linux-gnu --arch=amd64 --enable-gpl --disable-stripping --disable-omx --enable-gnutls --enable-libaom --enable-libass --enable-libbs2b --enable-libcaca --enable-libcdio --enable-libcodec2 --enable-libdav1d --enable-libflite --enable-libfontconfig --enable-libfreetype --enable-libfribidi --enable-libglslang --enable-libgme --enable-libgsm --enable-libharfbuzz --enable-libmp3lame --enable-libmysofa --enable-libopenjpeg --enable-libopenmpt --enable-libopus --enable-librubberband --enable-libshine --enable-libsnappy --enable-libsoxr --enable-libspeex --enable-libtheora --enable-libtwolame --enable-libvidstab --enable-libvorbis --enable-libvpx --enable-libwebp --enable-libx265 --enable-libxml2 --enable-libxvid --enable-libzimg --enable-openal --enable-opencl --enable-opengl --disable-sndio --enable-libvpl --disable-libmfx --enable-libdc1394 --enable-libdrm --enable-libiec61883 --enable-chromaprint --enable-frei0r --enable-ladspa --enable-libbluray --enable-libjack --enable-libpulse --enable-librabbitmq --enable-librist --enable-libsrt --enable-libssh --enable-libsvtav1 --enable-libx264 --enable-libzmq --enable-libzvbi --enable-lv2 --enable-sdl2 --enable-libplacebo --enable-librav1e --enable-pocketsphinx --enable-librsvg --enable-libjxl --enable-shared
  libavutil      58. 29.100 / 58. 29.100
  libavcodec     60. 31.102 / 60. 31.102
  libavformat    60. 16.100 / 60. 16.100
  libavdevice    60.  3.100 / 60.  3.100
  libavfilter     9. 12.100 /  9. 12.100
  libswscale      7.  5.100 /  7.  5.100
  libswresample   4. 12.100 /  4. 12.100
  libpostproc    57.  3.100 / 57.  3.100
Input #0, rawvideo, from 'fd:':
  Duration: N/A, start: 0.000000, bitrate: 663552 kb/s
  Stream #0:0: Video: rawvideo (RGB[24] / 0x18424752), rgb24, 1280x720, 663552 kb/s, 30 tbr, 30 tbn
Stream mapping:
  Stream #0:0 -> #0:0 (rawvideo (native) -> h264 (libx264))
[libx264 @ 0x61e217108480] using cpu capabilities: MMX2 SSE2Fast SSSE3 SSE4.2 AVX FMA3 BMI2 AVX2
[libx264 @ 0x61e217108480] profile High, level 3.1, 4:2:0, 8-bit
[libx264 @ 0x61e217108480] 264 - core 164 r3108 31e19f9 - H.264/MPEG-4 AVC codec - Copyleft 2003-2023 - http://www.videolan.org/x264.html - options: cabac=1 ref=3 deblock=1:0:0 analyse=0x3:0x113 me=hex subme=7 psy=1 psy_rd=1.00:0.00 mixed_ref=1 me_range=16 chroma_me=1 trellis=1 8x8dct=1 cqm=0 deadzone=21,11 fast_pskip=1 chroma_qp_offset=-2 threads=22 lookahead_threads=3 sliced_threads=0 nr=0 decimate=1 interlaced=0 bluray_compat=0 constrained_intra=0 bframes=3 b_pyramid=2 b_adapt=1 b_bias=0 direct=1 weightb=1 open_gop=0 weightp=2 keyint=250 keyint_min=25 scenecut=40 intra_refresh=0 rc_lookahead=40 rc=crf mbtree=1 crf=18.0 qcomp=0.60 qpmin=0 qpmax=69 qpstep=4 ip_ratio=1.40 aq=1:1.00
Output #0, mp4, to '/home/xinjie/Newton_Connection/Newton/phystwin_bridge/results/robot_rope_franka/candidates/20260401_093102_fixeddt_c10_contactfix_cam/presentation/work/robot_rope_tabletop_hero.mp4':
  Metadata:
    encoder         : Lavf60.16.100
  Stream #0:0: Video: h264 (avc1 / 0x31637661), yuv420p(tv, progressive), 1280x720, q=2-31, 30 fps, 15360 tbn
    Metadata:
      encoder         : Lavc60.31.102 libx264
    Side data:
      cpb: bitrate max/min/avg: 0/0/0 buffer size: 0 vbv_delay: N/A
frame=    0 fps=0.0 q=0.0 size=       0kB time=N/A bitrate=N/A speed=N/A    frame=   43 fps=0.0 q=24.0 size=       0kB time=00:00:01.36 bitrate=   0.3kbits/s speed=2.71x    [out#0/mp4 @ 0x61e217106c80] video:762kB audio:0kB subtitle:0kB other streams:0kB global headers:0kB muxing overhead: 0.394112%
frame=  186 fps=0.0 q=-1.0 Lsize=     765kB time=00:00:06.10 bitrate=1027.6kbits/s speed= 6.5x    
[libx264 @ 0x61e217108480] frame I:1     Avg QP:11.91  size: 89228
[libx264 @ 0x61e217108480] frame P:48    Avg QP:16.39  size:  8227
[libx264 @ 0x61e217108480] frame B:137   Avg QP:22.68  size:  2158
[libx264 @ 0x61e217108480] consecutive B-frames:  1.1%  1.1%  3.2% 94.6%
[libx264 @ 0x61e217108480] mb I  I16..4: 19.3% 36.8% 43.9%
[libx264 @ 0x61e217108480] mb P  I16..4:  0.2%  0.5%  0.3%  P16..4:  4.7%  3.3%  2.6%  0.0%  0.0%    skip:88.3%
[libx264 @ 0x61e217108480] mb B  I16..4:  0.0%  0.0%  0.0%  B16..8:  4.3%  1.7%  0.7%  direct: 0.7%  skip:92.6%  L0:36.3% L1:40.5% BI:23.3%
[libx264 @ 0x61e217108480] 8x8 transform intra:42.2% inter:20.4%
[libx264 @ 0x61e217108480] coded y,uvDC,uvAC intra: 35.1% 42.6% 37.0% inter: 2.5% 0.8% 0.4%
[libx264 @ 0x61e217108480] i16 v,h,dc,p: 57% 26%  9%  8%
[libx264 @ 0x61e217108480] i8 v,h,dc,ddl,ddr,vr,hd,vl,hu: 42% 10% 30%  1%  7%  3%  3%  1%  2%
[libx264 @ 0x61e217108480] i4 v,h,dc,ddl,ddr,vr,hd,vl,hu: 18% 27% 20%  4%  7%  4% 11%  2%  6%
[libx264 @ 0x61e217108480] i8c dc,h,v,p: 66% 20% 11%  2%
[libx264 @ 0x61e217108480] Weighted P-Frames: Y:0.0% UV:0.0%
[libx264 @ 0x61e217108480] ref P L0: 64.4% 12.3% 17.3%  6.0%
[libx264 @ 0x61e217108480] ref B L0: 83.6% 14.1%  2.3%
[libx264 @ 0x61e217108480] ref B L1: 93.9%  6.1%
[libx264 @ 0x61e217108480] kb/s:1006.19
/home/xinjie/Newton_Connection/Newton/phystwin_bridge/tools/core/newton_import_ir.py:1209: UserWarning: tabletop_table_box: PhysTwin ground collide_elas is present in IR, but native Newton SemiImplicit has no direct 1-to-1 restitution field for particle-vs-shape contacts. Ground bounce will therefore use native Newton ground ke/kd/kf defaults unless --ground-restitution-mode=approximate-native is selected.
  warnings.warn(message)
ffmpeg version 6.1.1-3ubuntu5+esm7 Copyright (c) 2000-2023 the FFmpeg developers
  built with gcc 13 (Ubuntu 13.3.0-6ubuntu2~24.04)
  configuration: --prefix=/usr --extra-version=3ubuntu5+esm7 --toolchain=hardened --libdir=/usr/lib/x86_64-linux-gnu --incdir=/usr/include/x86_64-linux-gnu --arch=amd64 --enable-gpl --disable-stripping --disable-omx --enable-gnutls --enable-libaom --enable-libass --enable-libbs2b --enable-libcaca --enable-libcdio --enable-libcodec2 --enable-libdav1d --enable-libflite --enable-libfontconfig --enable-libfreetype --enable-libfribidi --enable-libglslang --enable-libgme --enable-libgsm --enable-libharfbuzz --enable-libmp3lame --enable-libmysofa --enable-libopenjpeg --enable-libopenmpt --enable-libopus --enable-librubberband --enable-libshine --enable-libsnappy --enable-libsoxr --enable-libspeex --enable-libtheora --enable-libtwolame --enable-libvidstab --enable-libvorbis --enable-libvpx --enable-libwebp --enable-libx265 --enable-libxml2 --enable-libxvid --enable-libzimg --enable-openal --enable-opencl --enable-opengl --disable-sndio --enable-libvpl --disable-libmfx --enable-libdc1394 --enable-libdrm --enable-libiec61883 --enable-chromaprint --enable-frei0r --enable-ladspa --enable-libbluray --enable-libjack --enable-libpulse --enable-librabbitmq --enable-librist --enable-libsrt --enable-libssh --enable-libsvtav1 --enable-libx264 --enable-libzmq --enable-libzvbi --enable-lv2 --enable-sdl2 --enable-libplacebo --enable-librav1e --enable-pocketsphinx --enable-librsvg --enable-libjxl --enable-shared
  libavutil      58. 29.100 / 58. 29.100
  libavcodec     60. 31.102 / 60. 31.102
  libavformat    60. 16.100 / 60. 16.100
  libavdevice    60.  3.100 / 60.  3.100
  libavfilter     9. 12.100 /  9. 12.100
  libswscale      7.  5.100 /  7.  5.100
  libswresample   4. 12.100 /  4. 12.100
  libpostproc    57.  3.100 / 57.  3.100
Input #0, rawvideo, from 'fd:':
  Duration: N/A, start: 0.000000, bitrate: 663552 kb/s
  Stream #0:0: Video: rawvideo (RGB[24] / 0x18424752), rgb24, 1280x720, 663552 kb/s, 30 tbr, 30 tbn
Stream mapping:
  Stream #0:0 -> #0:0 (rawvideo (native) -> h264 (libx264))
[libx264 @ 0x58ec07a96480] using cpu capabilities: MMX2 SSE2Fast SSSE3 SSE4.2 AVX FMA3 BMI2 AVX2
[libx264 @ 0x58ec07a96480] profile High, level 3.1, 4:2:0, 8-bit
[libx264 @ 0x58ec07a96480] 264 - core 164 r3108 31e19f9 - H.264/MPEG-4 AVC codec - Copyleft 2003-2023 - http://www.videolan.org/x264.html - options: cabac=1 ref=3 deblock=1:0:0 analyse=0x3:0x113 me=hex subme=7 psy=1 psy_rd=1.00:0.00 mixed_ref=1 me_range=16 chroma_me=1 trellis=1 8x8dct=1 cqm=0 deadzone=21,11 fast_pskip=1 chroma_qp_offset=-2 threads=22 lookahead_threads=3 sliced_threads=0 nr=0 decimate=1 interlaced=0 bluray_compat=0 constrained_intra=0 bframes=3 b_pyramid=2 b_adapt=1 b_bias=0 direct=1 weightb=1 open_gop=0 weightp=2 keyint=250 keyint_min=25 scenecut=40 intra_refresh=0 rc_lookahead=40 rc=crf mbtree=1 crf=18.0 qcomp=0.60 qpmin=0 qpmax=69 qpstep=4 ip_ratio=1.40 aq=1:1.00
Output #0, mp4, to '/home/xinjie/Newton_Connection/Newton/phystwin_bridge/results/robot_rope_franka/candidates/20260401_093102_fixeddt_c10_contactfix_cam/debug/work/robot_rope_tabletop_hero_debug.mp4':
  Metadata:
    encoder         : Lavf60.16.100
  Stream #0:0: Video: h264 (avc1 / 0x31637661), yuv420p(tv, progressive), 1280x720, q=2-31, 30 fps, 15360 tbn
    Metadata:
      encoder         : Lavc60.31.102 libx264
    Side data:
      cpb: bitrate max/min/avg: 0/0/0 buffer size: 0 vbv_delay: N/A
frame=    0 fps=0.0 q=0.0 size=       0kB time=N/A bitrate=N/A speed=N/A    frame=    0 fps=0.0 q=0.0 size=       0kB time=N/A bitrate=N/A speed=N/A    frame=   37 fps= 37 q=24.0 size=       0kB time=00:00:01.16 bitrate=   0.3kbits/s speed=1.15x    frame=   76 fps= 50 q=24.0 size=     256kB time=00:00:02.46 bitrate= 850.4kbits/s speed=1.63x    frame=  105 fps= 52 q=24.0 size=     256kB time=00:00:03.43 bitrate= 610.9kbits/s speed= 1.7x    [out#0/mp4 @ 0x58ec07a94c80] video:720kB audio:0kB subtitle:0kB other streams:0kB global headers:0kB muxing overhead: 0.418248%
frame=  186 fps= 81 q=-1.0 Lsize=     723kB time=00:00:06.10 bitrate= 971.1kbits/s speed=2.66x    
[libx264 @ 0x58ec07a96480] frame I:1     Avg QP:11.96  size: 53752
[libx264 @ 0x58ec07a96480] frame P:48    Avg QP:17.84  size:  8646
[libx264 @ 0x58ec07a96480] frame B:137   Avg QP:24.63  size:  1955
[libx264 @ 0x58ec07a96480] consecutive B-frames:  0.5%  3.2%  1.6% 94.6%
[libx264 @ 0x58ec07a96480] mb I  I16..4: 39.2% 36.9% 23.9%
[libx264 @ 0x58ec07a96480] mb P  I16..4:  0.2%  0.3%  0.4%  P16..4:  4.2%  3.1%  2.8%  0.0%  0.0%    skip:89.0%
[libx264 @ 0x58ec07a96480] mb B  I16..4:  0.0%  0.1%  0.0%  B16..8:  3.4%  1.5%  0.7%  direct: 0.7%  skip:93.7%  L0:34.6% L1:41.5% BI:23.9%
[libx264 @ 0x58ec07a96480] 8x8 transform intra:38.2% inter:23.2%
[libx264 @ 0x58ec07a96480] coded y,uvDC,uvAC intra: 26.7% 24.3% 14.6% inter: 2.4% 0.8% 0.4%
[libx264 @ 0x58ec07a96480] i16 v,h,dc,p: 76% 17%  3%  3%
[libx264 @ 0x58ec07a96480] i8 v,h,dc,ddl,ddr,vr,hd,vl,hu: 41% 10% 41%  1%  2%  1%  2%  1%  2%
[libx264 @ 0x58ec07a96480] i4 v,h,dc,ddl,ddr,vr,hd,vl,hu: 25% 26% 16%  4%  6%  6%  7%  4%  5%
[libx264 @ 0x58ec07a96480] i8c dc,h,v,p: 72% 18%  9%  2%
[libx264 @ 0x58ec07a96480] Weighted P-Frames: Y:0.0% UV:0.0%
[libx264 @ 0x58ec07a96480] ref P L0: 66.4% 15.4% 13.7%  4.5%
[libx264 @ 0x58ec07a96480] ref B L0: 87.6% 10.7%  1.6%
[libx264 @ 0x58ec07a96480] ref B L1: 96.0%  4.0%
[libx264 @ 0x58ec07a96480] kb/s:950.54
/home/xinjie/Newton_Connection/Newton/phystwin_bridge/tools/core/newton_import_ir.py:1209: UserWarning: tabletop_table_box: PhysTwin ground collide_elas is present in IR, but native Newton SemiImplicit has no direct 1-to-1 restitution field for particle-vs-shape contacts. Ground bounce will therefore use native Newton ground ke/kd/kf defaults unless --ground-restitution-mode=approximate-native is selected.
  warnings.warn(message)
ffmpeg version 6.1.1-3ubuntu5+esm7 Copyright (c) 2000-2023 the FFmpeg developers
  built with gcc 13 (Ubuntu 13.3.0-6ubuntu2~24.04)
  configuration: --prefix=/usr --extra-version=3ubuntu5+esm7 --toolchain=hardened --libdir=/usr/lib/x86_64-linux-gnu --incdir=/usr/include/x86_64-linux-gnu --arch=amd64 --enable-gpl --disable-stripping --disable-omx --enable-gnutls --enable-libaom --enable-libass --enable-libbs2b --enable-libcaca --enable-libcdio --enable-libcodec2 --enable-libdav1d --enable-libflite --enable-libfontconfig --enable-libfreetype --enable-libfribidi --enable-libglslang --enable-libgme --enable-libgsm --enable-libharfbuzz --enable-libmp3lame --enable-libmysofa --enable-libopenjpeg --enable-libopenmpt --enable-libopus --enable-librubberband --enable-libshine --enable-libsnappy --enable-libsoxr --enable-libspeex --enable-libtheora --enable-libtwolame --enable-libvidstab --enable-libvorbis --enable-libvpx --enable-libwebp --enable-libx265 --enable-libxml2 --enable-libxvid --enable-libzimg --enable-openal --enable-opencl --enable-opengl --disable-sndio --enable-libvpl --disable-libmfx --enable-libdc1394 --enable-libdrm --enable-libiec61883 --enable-chromaprint --enable-frei0r --enable-ladspa --enable-libbluray --enable-libjack --enable-libpulse --enable-librabbitmq --enable-librist --enable-libsrt --enable-libssh --enable-libsvtav1 --enable-libx264 --enable-libzmq --enable-libzvbi --enable-lv2 --enable-sdl2 --enable-libplacebo --enable-librav1e --enable-pocketsphinx --enable-librsvg --enable-libjxl --enable-shared
  libavutil      58. 29.100 / 58. 29.100
  libavcodec     60. 31.102 / 60. 31.102
  libavformat    60. 16.100 / 60. 16.100
  libavdevice    60.  3.100 / 60.  3.100
  libavfilter     9. 12.100 /  9. 12.100
  libswscale      7.  5.100 /  7.  5.100
  libswresample   4. 12.100 /  4. 12.100
  libpostproc    57.  3.100 / 57.  3.100
Input #0, rawvideo, from 'fd:':
  Duration: N/A, start: 0.000000, bitrate: 663552 kb/s
  Stream #0:0: Video: rawvideo (RGB[24] / 0x18424752), rgb24, 1280x720, 663552 kb/s, 30 tbr, 30 tbn
Stream mapping:
  Stream #0:0 -> #0:0 (rawvideo (native) -> h264 (libx264))
[libx264 @ 0x63f416c09580] using cpu capabilities: MMX2 SSE2Fast SSSE3 SSE4.2 AVX FMA3 BMI2 AVX2
[libx264 @ 0x63f416c09580] profile High, level 3.1, 4:2:0, 8-bit
[libx264 @ 0x63f416c09580] 264 - core 164 r3108 31e19f9 - H.264/MPEG-4 AVC codec - Copyleft 2003-2023 - http://www.videolan.org/x264.html - options: cabac=1 ref=3 deblock=1:0:0 analyse=0x3:0x113 me=hex subme=7 psy=1 psy_rd=1.00:0.00 mixed_ref=1 me_range=16 chroma_me=1 trellis=1 8x8dct=1 cqm=0 deadzone=21,11 fast_pskip=1 chroma_qp_offset=-2 threads=22 lookahead_threads=3 sliced_threads=0 nr=0 decimate=1 interlaced=0 bluray_compat=0 constrained_intra=0 bframes=3 b_pyramid=2 b_adapt=1 b_bias=0 direct=1 weightb=1 open_gop=0 weightp=2 keyint=250 keyint_min=25 scenecut=40 intra_refresh=0 rc_lookahead=40 rc=crf mbtree=1 crf=18.0 qcomp=0.60 qpmin=0 qpmax=69 qpstep=4 ip_ratio=1.40 aq=1:1.00
Output #0, mp4, to '/home/xinjie/Newton_Connection/Newton/phystwin_bridge/results/robot_rope_franka/candidates/20260401_093102_fixeddt_c10_contactfix_cam/validation/work/robot_rope_tabletop_hero_validation.mp4':
  Metadata:
    encoder         : Lavf60.16.100
  Stream #0:0: Video: h264 (avc1 / 0x31637661), yuv420p(tv, progressive), 1280x720, q=2-31, 30 fps, 15360 tbn
    Metadata:
      encoder         : Lavc60.31.102 libx264
    Side data:
      cpb: bitrate max/min/avg: 0/0/0 buffer size: 0 vbv_delay: N/A
frame=    0 fps=0.0 q=0.0 size=       0kB time=N/A bitrate=N/A speed=N/A    frame=   21 fps=0.0 q=24.0 size=       0kB time=00:00:00.63 bitrate=   0.6kbits/s speed=1.26x    frame=   70 fps= 69 q=24.0 size=       0kB time=00:00:02.26 bitrate=   0.2kbits/s speed=2.25x    frame=  115 fps= 76 q=24.0 size=     256kB time=00:00:03.76 bitrate= 556.9kbits/s speed=2.49x    [out#0/mp4 @ 0x63f416c07c80] video:620kB audio:0kB subtitle:0kB other streams:0kB global headers:0kB muxing overhead: 0.482985%
frame=  186 fps=116 q=-1.0 Lsize=     623kB time=00:00:06.10 bitrate= 837.1kbits/s speed=3.81x    
[libx264 @ 0x63f416c09580] frame I:1     Avg QP:10.81  size: 82136
[libx264 @ 0x63f416c09580] frame P:48    Avg QP:16.32  size:  6214
[libx264 @ 0x63f416c09580] frame B:137   Avg QP:23.30  size:  1855
[libx264 @ 0x63f416c09580] consecutive B-frames:  0.5%  2.2%  4.8% 92.5%
[libx264 @ 0x63f416c09580] mb I  I16..4: 30.8% 27.4% 41.8%
[libx264 @ 0x63f416c09580] mb P  I16..4:  0.1%  0.3%  0.2%  P16..4:  3.4%  2.2%  1.8%  0.0%  0.0%    skip:92.0%
[libx264 @ 0x63f416c09580] mb B  I16..4:  0.0%  0.1%  0.0%  B16..8:  2.9%  1.1%  0.5%  direct: 0.5%  skip:94.8%  L0:36.1% L1:38.1% BI:25.8%
[libx264 @ 0x63f416c09580] 8x8 transform intra:40.1% inter:17.6%
[libx264 @ 0x63f416c09580] coded y,uvDC,uvAC intra: 29.8% 39.4% 35.3% inter: 1.9% 0.5% 0.3%
[libx264 @ 0x63f416c09580] i16 v,h,dc,p: 75% 10% 11%  3%
[libx264 @ 0x63f416c09580] i8 v,h,dc,ddl,ddr,vr,hd,vl,hu: 29%  7% 52%  0%  3%  4%  2%  0%  2%
[libx264 @ 0x63f416c09580] i4 v,h,dc,ddl,ddr,vr,hd,vl,hu: 26% 31% 15%  1%  6%  5%  7%  1%  7%
[libx264 @ 0x63f416c09580] i8c dc,h,v,p: 69% 17% 13%  2%
[libx264 @ 0x63f416c09580] Weighted P-Frames: Y:0.0% UV:0.0%
[libx264 @ 0x63f416c09580] ref P L0: 66.2% 12.5% 15.9%  5.4%
[libx264 @ 0x63f416c09580] ref B L0: 85.7% 12.1%  2.2%
[libx264 @ 0x63f416c09580] ref B L1: 95.1%  4.9%
[libx264 @ 0x63f416c09580] kb/s:818.74
